<svg xmlns="http://www.w3.org/2000/svg" version="1.1" xmlns:xlink="http://www.w3.org/1999/xlink" width="50" height="50" x="0" y="0" viewBox="0 0 512 512" style="enable-background:new 0 0 512 512" xml:space="preserve" class=""><g transform="matrix(0.9100000000000003,0,0,0.9100000000000003,23.039999999999935,23.039999999999935)"><path fill="#58edd6" d="M236 260V100c0-33.57 20.687-62.292 50-74.162A79.727 79.727 0 0 0 256 20c-44.183 0-80 35.817-80 80v160c0 44.183 35.817 80 80 80a79.746 79.746 0 0 0 30-5.837c-29.313-11.87-50-40.593-50-74.163z" opacity="0.6392156862745098" data-original="#cee1f2" class=""></path><path fill="#25c6a6" d="M436 260c0-11.046-8.954-20-20-20s-20 8.954-20 20c0 77.196-62.804 140-140 140s-140-62.804-140-140c0-11.046-8.954-20-20-20s-20 8.954-20 20c0 92.492 70.126 168.901 160 178.883V472h-60c-11.046 0-20 8.954-20 20s8.954 20 20 20h160c11.046 0 20-8.954 20-20s-8.954-20-20-20h-60v-33.117c89.874-9.982 160-86.391 160-178.883z" opacity="1" data-original="#0023c4" class=""></path><path fill="#25c6a6" d="M256 360c-55.14 0-100-44.86-100-100V100C156 44.86 200.86 0 256 0s100 44.86 100 100v160c0 55.14-44.86 100-100 100zm0-320c-33.084 0-60 26.916-60 60v160c0 33.084 26.916 60 60 60s60-26.916 60-60V100c0-33.084-26.916-60-60-60z" opacity="1" data-original="#0023c4" class=""></path><g fill="#ff5cf4"><path d="M96 200c-11.046 0-20-8.954-20-20v-40c0-11.046 8.954-20 20-20s20 8.954 20 20v40c0 11.046-8.954 20-20 20zM20 240c-11.046 0-20-8.954-20-20V100c0-11.046 8.954-20 20-20s20 8.954 20 20v120c0 11.046-8.954 20-20 20zM416 200c-11.046 0-20-8.954-20-20v-40c0-11.046 8.954-20 20-20s20 8.954 20 20v40c0 11.046-8.954 20-20 20zM492 240c-11.046 0-20-8.954-20-20V100c0-11.046 8.954-20 20-20s20 8.954 20 20v120c0 11.046-8.954 20-20 20z" fill="#17c3a9" opacity="1" data-original="#ff5cf4" class=""></path></g></g></svg>